<?xml version="1.0" standalone="no"?>
<!DOCTYPE svg PUBLIC "-//W3C//DTD SVG 20010904//EN"
 "http://www.w3.org/TR/2001/REC-SVG-20010904/DTD/svg10.dtd">
<svg version="1.0" xmlns="http://www.w3.org/2000/svg"
 width="870.000000pt" height="870.000000pt" viewBox="0 0 870.000000 870.000000"
 preserveAspectRatio="xMidYMid meet">
<metadata>
Created by potrace 1.10, written by Peter Selinger 2001-2011
</metadata>
<g transform="translate(0.000000,870.000000) scale(0.100000,-0.100000)"
fill="#000000" stroke="none">
<path d="M595 8078 c-3 -7 -4 -479 -3 -1048 l3 -1035 1045 0 1045 0 0 1045 0
1045 -1043 3 c-829 2 -1044 0 -1047 -10z m1790 -1038 l0 -745 -745 0 -745 0
-3 735 c-1 404 0 741 3 748 3 10 158 12 747 10 l743 -3 0 -745z"/>
<path d="M1195 7478 c-3 -7 -4 -209 -3 -448 l3 -435 445 0 445 0 0 445 0 445
-443 3 c-349 2 -444 0 -447 -10z"/>
<path d="M3595 8078 c-3 -7 -6 -141 -7 -298 l-3 -285 -295 -5 -295 -5 0 -895
0 -895 148 -3 147 -3 0 -149 0 -150 -300 0 -299 0 -3 148 -3 147 -745 0 -745
0 -5 -145 -5 -145 -147 -3 -147 -3 -3 148 -3 148 -145 0 -145 0 0 -145 0 -145
148 -3 148 -3 -3 -147 -3 -147 -145 -5 -145 -5 0 -145 0 -145 145 -5 145 -5 5
-145 5 -145 145 0 145 0 5 145 5 145 295 5 295 5 5 295 5 295 448 3 448 2 -3
-147 -3 -148 -145 -5 -145 -5 0 -145 0 -145 145 -5 145 -5 0 -145 0 -145 -295
-5 -295 -5 -5 -595 -5 -595 -147 -3 -148 -3 -2 298 -3 298 -145 0 -145 0 -3
-297 -2 -297 -148 -3 -147 -3 0 -145 0 -145 145 0 145 0 3 148 3 147 149 0
149 0 3 -147 3 -148 597 -3 597 -2 3 -148 3 -147 145 -5 145 -5 3 -147 3 -147
-148 -3 -148 -3 0 -595 0 -595 148 -3 147 -3 0 -149 0 -149 -147 -3 -148 -3 0
-145 0 -145 145 0 145 0 3 148 3 148 147 -3 147 -3 5 -145 5 -145 145 0 145 0
0 295 0 295 -298 3 -297 2 2 298 3 297 297 3 297 2 3 -147 3 -148 147 -3 147
-3 3 -147 3 -147 445 0 445 0 3 147 3 147 147 3 147 3 5 145 5 145 145 0 145
0 5 -145 5 -145 298 -3 297 -2 -2 -298 -3 -297 -297 -3 -297 -2 -3 147 -3 148
-145 0 -145 0 0 -145 0 -145 147 -3 147 -3 3 -147 3 -147 1195 0 1195 0 0 595
0 595 -295 5 -295 5 -3 147 -3 148 298 2 298 3 0 295 0 295 -295 5 -295 5 -5
295 -5 295 -147 3 -148 3 0 450 0 450 148 -3 147 -3 5 -295 5 -295 145 -5 145
-5 5 -145 5 -145 145 0 145 0 0 295 0 295 -145 5 -145 5 0 145 0 145 145 5
145 5 0 445 0 445 -145 5 -145 5 -5 145 -5 145 -147 3 -147 3 -3 147 -3 147
-745 0 -745 0 0 -145 0 -145 145 -5 145 -5 0 -295 0 -295 -147 -3 -147 -3 -3
148 -3 148 -145 5 -145 5 -5 145 -5 145 -148 3 -148 3 3 147 3 147 145 5 145
5 0 295 0 295 -147 3 -148 3 0 149 0 149 148 3 147 3 0 145 0 145 -145 0 -145
0 -3 -147 -3 -147 -147 -3 -147 -3 -3 -147 -3 -147 -147 -3 -147 -3 -5 -295
-5 -295 -148 -3 -147 -3 2 448 3 448 145 5 145 5 5 145 5 145 145 5 145 5 5
145 5 145 145 5 145 5 5 145 5 145 145 5 145 5 0 295 0 295 -145 0 -145 0 -5
-145 -5 -145 -595 0 -595 0 -5 145 -5 145 -293 3 c-229 2 -294 0 -297 -10z
m1190 -738 l0 -145 -147 -3 -147 -3 -3 -147 -3 -147 -145 -5 -145 -5 -5 -145
-5 -145 -145 -5 -145 -5 -3 -147 -3 -147 148 -3 148 -3 0 -145 0 -145 -145 0
-145 0 -3 148 -3 148 -147 -3 -147 -3 -5 -295 -5 -295 -148 -3 -147 -3 2 448
3 448 145 5 145 5 3 147 3 147 -148 3 -148 3 0 145 0 145 145 0 145 0 3 -148
3 -148 147 3 147 3 5 145 5 145 298 3 297 2 0 143 c0 79 3 147 7 151 4 3 70 5
147 4 l141 -3 0 -145z m603 -1197 l-3 -148 -145 0 -145 0 -3 148 -3 147 151 0
151 0 -3 -147z m-896 -600 l3 -148 145 -5 145 -5 5 -295 5 -295 145 -5 145 -5
0 -145 0 -145 -295 0 -295 0 -5 295 -5 295 -147 3 -147 3 -3 -148 -3 -148
-145 0 -145 0 -3 148 -3 148 -147 -3 -147 -3 -5 -145 -5 -145 -147 -3 -148 -3
0 -149 0 -150 298 -2 297 -3 3 -147 3 -148 749 0 749 0 3 148 3 147 147 3 147
3 3 147 3 147 148 3 148 3 -3 -148 -3 -148 -147 -3 -148 -3 0 -149 0 -150 300
0 299 0 3 148 3 147 147 3 148 3 2 447 3 447 447 3 448 2 2 -297 3 -298 145
-5 145 -5 0 -145 0 -145 -295 -5 -295 -5 -3 -147 -3 -148 -149 0 -150 0 0
-450 0 -450 150 0 151 0 -3 -147 -3 -148 -145 0 -145 0 -3 147 -3 147 -147 3
-147 3 -5 145 -5 145 -145 0 -145 0 -5 -145 -5 -145 -145 0 -145 0 -5 295 -5
295 -147 3 -147 3 -3 -148 -3 -148 -145 0 -145 0 -3 148 -3 148 -147 -3 -147
-3 -5 -145 -5 -145 -145 -5 -145 -5 -5 -145 -5 -145 -295 0 -295 0 0 145 0
145 145 5 145 5 0 145 0 145 -295 5 -295 5 -3 148 -3 147 -299 0 -300 0 2
-297 3 -298 145 -5 145 -5 5 -145 5 -145 145 -5 145 -5 5 -145 5 -145 145 -5
145 -5 5 -145 5 -145 297 -3 297 -2 3 147 3 148 295 0 295 0 0 -445 0 -445
-145 -5 -145 -5 -3 -298 -2 -298 -148 3 -147 3 -5 295 -5 295 -295 0 -295 0
-3 -147 -3 -147 148 -3 148 -3 0 -145 0 -145 -147 -3 -148 -3 0 151 0 150
-150 0 -149 0 -3 148 -3 147 -295 5 -295 5 -3 147 -3 147 148 3 148 3 0 295 0
295 -298 3 -297 2 2 598 3 597 148 3 147 3 0 149 0 149 -147 3 -148 3 0 145 0
145 148 3 147 3 0 299 0 300 298 -2 297 -3 3 -147 3 -148 149 0 150 0 0 293
c0 162 3 297 7 300 3 4 71 7 149 7 l143 0 3 -147z m896 -300 l-3 -148 -145 0
-145 0 -3 134 c-1 74 0 141 2 148 4 10 41 13 151 13 l146 0 -3 -147z m-2703
-1203 l0 -145 -145 0 -145 0 -3 134 c-1 74 0 141 2 148 4 11 37 13 148 11
l143 -3 0 -145z m0 -600 l0 -145 -145 0 -145 0 -3 134 c-1 74 0 141 2 148 4
11 37 13 148 11 l143 -3 0 -145z m3900 -900 l0 -445 -445 0 -445 0 -3 435 c-1
239 0 441 3 448 3 10 98 12 447 10 l443 -3 0 -445z m903 -303 l3 -148 -148 3
-148 3 -3 134 c-1 74 0 141 2 148 4 11 37 13 148 11 l143 -3 3 -148z m-900
-600 l3 -148 147 3 147 3 5 145 5 145 145 0 145 0 3 -298 2 -298 148 3 147 3
5 145 5 145 145 0 145 0 0 -295 0 -295 -295 0 -295 0 -3 147 -3 148 -297 2
-297 3 -3 148 -3 147 -149 0 -150 0 0 143 c0 79 3 147 7 151 4 3 70 5 147 4
l141 -3 3 -148z"/>
<path d="M6894 5077 c-2 -7 -3 -74 -2 -148 l3 -134 145 0 145 0 0 145 0 145
-143 3 c-111 2 -144 0 -148 -11z"/>
<path d="M6590 4340 l0 -150 -150 0 -151 0 3 -147 3 -148 145 0 145 0 3 148 3
147 150 0 150 0 -3 148 -3 147 -147 3 -148 3 0 -151z"/>
<path d="M5390 4040 l0 -150 150 0 150 0 0 150 0 150 -150 0 -150 0 0 -150z"/>
<path d="M4792 2543 l3 -148 145 0 145 0 0 145 0 145 -148 3 -148 3 3 -148z"/>
<path d="M5994 2677 c-2 -7 -3 -74 -2 -148 l3 -134 145 0 145 0 0 145 0 145
-143 3 c-111 2 -144 0 -148 -11z"/>
<path d="M5995 8078 c-3 -7 -4 -479 -3 -1048 l3 -1035 1045 0 1045 0 0 1045 0
1045 -1043 3 c-829 2 -1044 0 -1047 -10z m1790 -1038 l0 -745 -745 0 -745 0
-3 735 c-1 404 0 741 3 748 3 10 158 12 747 10 l743 -3 0 -745z"/>
<path d="M6595 7478 c-3 -7 -4 -209 -3 -448 l3 -435 445 0 445 0 0 445 0 445
-443 3 c-349 2 -444 0 -447 -10z"/>
<path d="M1494 4477 c-2 -7 -3 -74 -2 -148 l3 -134 145 0 145 0 0 145 0 145
-143 3 c-111 2 -144 0 -148 -11z"/>
<path d="M595 4178 c-3 -7 -4 -276 -3 -598 l3 -585 145 0 145 0 0 595 0 595
-143 3 c-108 2 -144 0 -147 -10z"/>
<path d="M595 2678 c-3 -7 -4 -479 -3 -1048 l3 -1035 1045 0 1045 0 0 1045 0
1045 -1043 3 c-829 2 -1044 0 -1047 -10z m1790 -1038 l0 -745 -745 0 -745 0
-3 735 c-1 404 0 741 3 748 3 10 158 12 747 10 l743 -3 0 -745z"/>
<path d="M1195 2078 c-3 -7 -4 -209 -3 -448 l3 -435 445 0 445 0 0 445 0 445
-443 3 c-349 2 -444 0 -447 -10z"/>
<path d="M4194 877 c-2 -7 -3 -74 -2 -148 l3 -134 445 0 445 0 0 145 0 145
-443 3 c-358 2 -444 0 -448 -11z"/>
</g>
</svg>
